<svg width="21" height="20" viewBox="0 0 21 20" fill="none" xmlns="http://www.w3.org/2000/svg">
<path fill-rule="evenodd" clip-rule="evenodd" d="M6.03815 7.29296C6.22568 7.10549 6.47998 7.00017 6.74515 7.00017C7.01031 7.00017 7.26462 7.10549 7.45215 7.29296L10.7451 10.586L14.0381 7.29296C14.1304 7.19745 14.2407 7.12127 14.3627 7.06886C14.4847 7.01645 14.616 6.98886 14.7487 6.98771C14.8815 6.98655 15.0132 7.01186 15.1361 7.06214C15.259 7.11242 15.3706 7.18667 15.4645 7.28056C15.5584 7.37446 15.6327 7.48611 15.683 7.60901C15.7332 7.7319 15.7586 7.86358 15.7574 7.99636C15.7562 8.12914 15.7287 8.26036 15.6762 8.38236C15.6238 8.50437 15.5477 8.61471 15.4521 8.70696L11.4521 12.707C11.2646 12.8944 11.0103 12.9997 10.7451 12.9997C10.48 12.9997 10.2257 12.8944 10.0381 12.707L6.03815 8.70696C5.85068 8.51943 5.74536 8.26512 5.74536 7.99996C5.74536 7.73479 5.85068 7.48049 6.03815 7.29296Z" fill="black"/>
</svg>
