<svg width="18" height="18" viewBox="0 0 18 18" fill="none" xmlns="http://www.w3.org/2000/svg">
<path d="M14.9993 3.90147C14.893 3.77659 14.7862 3.65509 14.6762 3.54203C13.9386 2.77462 13.053 2.16476 12.0731 1.74933C11.0931 1.3339 10.039 1.12152 8.97464 1.12504C7.91024 1.12857 6.85762 1.34791 5.88041 1.76982C4.9032 2.19173 4.0217 2.80744 3.28922 3.57972C3.18881 3.68631 3.09234 3.79262 3.00009 3.90175C1.78952 5.32466 1.12476 7.13191 1.12476 9.00011C1.12476 10.8683 1.78952 12.6756 3.00009 14.0985C3.1064 14.2233 3.21328 14.3448 3.32325 14.4579C4.06083 15.2253 4.94638 15.8352 5.92636 16.2506C6.90635 16.666 7.9604 16.8784 9.02479 16.8749C10.0892 16.8714 11.1418 16.652 12.119 16.2301C13.0962 15.8082 13.9777 15.1925 14.7102 14.4202C14.8106 14.3136 14.9071 14.2073 14.9993 14.0982C16.2099 12.6753 16.8747 10.868 16.8747 8.99983C16.8747 7.13162 16.2099 5.32438 14.9993 3.90147ZM6.28059 10.8647C6.21015 10.2352 6.17503 9.60237 6.1754 8.96903C6.1754 8.4594 6.20353 7.9509 6.24712 7.44747H11.7517C11.7951 7.95175 11.8237 8.45997 11.8237 8.96903C11.8241 9.60237 11.789 10.2352 11.7186 10.8647H6.28059ZM2.25 8.99997C2.25189 8.47693 2.31485 7.9559 2.43759 7.44747H5.11875C5.07825 7.95231 5.0504 8.45997 5.0504 8.96903C5.04994 9.60217 5.08251 10.2349 5.148 10.8647H2.5169C2.34114 10.2586 2.25129 9.63095 2.25 8.99997ZM12.8812 7.44747H15.5635C15.8379 8.57372 15.8104 9.7524 15.4839 10.8647H12.8512C12.9166 10.2349 12.9492 9.60217 12.9487 8.96903C12.9487 8.46109 12.9209 7.95315 12.8812 7.44747ZM14.1443 4.63131C14.575 5.13994 14.9274 5.70992 15.19 6.32247H12.7583C12.6284 5.42901 12.4104 4.55061 12.1075 3.70009C12.0597 3.56847 12.0116 3.43993 11.9602 3.31506C11.8884 3.14434 11.8139 2.98234 11.7374 2.82681C12.5379 3.18305 13.2614 3.69163 13.8676 4.32418C13.9629 4.42234 14.0532 4.52584 14.1435 4.63131H14.1443ZM10.0994 2.3394C10.4442 2.76393 10.7215 3.23899 10.9218 3.7479C10.9665 3.85562 11.0084 3.96897 11.0509 4.0854C11.3089 4.81156 11.4985 5.56022 11.6173 6.32162H6.38268C6.50221 5.5577 6.69279 4.80659 6.95193 4.07809C6.98822 3.97431 7.02703 3.87587 7.06443 3.78193C7.26561 3.26125 7.54614 2.77484 7.89609 2.33997C8.62566 2.22034 9.36984 2.22034 10.0994 2.33997V2.3394ZM3.85959 4.62765C3.93975 4.53203 4.02243 4.44175 4.10681 4.35259C4.71726 3.70596 5.45002 3.18696 6.26259 2.82568C6.1799 2.99443 6.09975 3.17134 6.02353 3.35781C5.97797 3.47031 5.93268 3.58534 5.89303 3.6984C5.59146 4.54964 5.37478 5.4286 5.24615 6.32247H2.81109C3.07453 5.70862 3.4279 5.13741 3.85959 4.62765ZM3.8565 13.3686C3.50006 12.9481 3.19683 12.4852 2.95368 11.9905H5.30831C5.43445 12.7561 5.62998 13.5086 5.89247 14.2388C5.94028 14.3704 5.98837 14.499 6.03956 14.6227C6.12281 14.8228 6.2099 15.0123 6.30084 15.1914C5.4852 14.8344 4.74824 14.3196 4.1324 13.6766C4.03706 13.5776 3.94678 13.4741 3.8565 13.3686ZM7.95937 15.6707C7.58603 15.2293 7.28838 14.7291 7.0785 14.1904C7.03378 14.0824 6.99187 13.9688 6.94884 13.8501C6.72979 13.2452 6.56241 12.6228 6.4485 11.9897H11.5518C11.437 12.626 11.2685 13.2515 11.0481 13.8594C11.0174 13.9477 10.9845 14.0301 10.9516 14.1125L10.9347 14.155C10.7242 14.7077 10.4209 15.2203 10.0378 15.6709C9.34888 15.7759 8.64802 15.7759 7.95909 15.6709L7.95937 15.6707ZM14.1407 13.3723C14.0605 13.4679 13.9778 13.5582 13.8935 13.6473C13.2734 14.3045 12.5273 14.83 11.6997 15.1925C11.7976 14.9987 11.8913 14.793 11.981 14.5755L12.0001 14.5277C12.0383 14.4306 12.0766 14.3342 12.1089 14.2411C12.3718 13.5104 12.5677 12.7573 12.6942 11.9911H15.0469C14.8025 12.4869 14.4983 12.9508 14.1407 13.3723Z" fill="black"/>
</svg>
