<svg width="16" height="16" viewBox="0 0 16 16" fill="none" xmlns="http://www.w3.org/2000/svg">
<g clip-path="url(#clip0_20_1096)">
<path d="M7.2 0C11.1765 0 14.4 3.22355 14.4 7.2C14.4 11.1765 11.1765 14.4 7.2 14.4C3.22355 14.4 0 11.1765 0 7.2C0 3.22355 3.22355 0 7.2 0ZM7.2 1.6C4.10721 1.6 1.6 4.10721 1.6 7.2C1.6 10.2928 4.10721 12.8 7.2 12.8C10.2928 12.8 12.8 10.2928 12.8 7.2C12.8 4.10721 10.2928 1.6 7.2 1.6ZM11.1543 11.1543C11.4427 10.8659 11.8965 10.8437 12.2103 11.0878L12.2857 11.1543L15.7657 14.6343C16.0781 14.9467 16.0781 15.4533 15.7657 15.7657C15.4773 16.0541 15.0235 16.0763 14.7097 15.8322L14.6343 15.7657L11.1543 12.2857C10.8419 11.9733 10.8419 11.4667 11.1543 11.1543Z" fill="black"/>
</g>
<defs>
<clipPath id="clip0_20_1096">
<rect width="16" height="16" fill="white"/>
</clipPath>
</defs>
</svg>
