<svg width="1728" height="852" viewBox="0 0 1728 852" fill="none" xmlns="http://www.w3.org/2000/svg">
<rect width="1728" height="852" fill="#F5F6F3"/>
<path opacity="0.2" fill-rule="evenodd" clip-rule="evenodd" d="M1727 0H1632V76.4545H1727V0ZM1728 76.4545V77.4545V153.909V154.909V231.364V232.364V308.818V309.818V386.273V387.273V463.727V464.727V541.182V542.182V618.636V619.636V696.091V697.091V773.545V774.545V851V852H1727H1632H1631H1536H1535H1440H1439H1344H1343H1248H1247H1152H1151H1056H1055H960H959H864H863H768H767H672H671H576H575H480H479H384H383H288H287H192H191H96H95H3.71933e-05H-2.37823e-05H-0.999963L-1 0H-2.37823e-05V-1H1728V0V76.4545ZM3.71933e-05 851H95L95 774.545H3.37362e-05L3.71933e-05 851ZM96 851H191L191 774.545H96L96 851ZM192 851H287L287 774.545H192L192 851ZM288 851H383L383 774.545H288L288 851ZM384 851H479L479 774.545H384L384 851ZM480 851H575L575 774.545H480L480 851ZM576 851H671L671 774.545H576L576 851ZM672 851H767L767 774.545H672L672 851ZM768 851H863L863 774.545H768L768 851ZM864 851H959L959 774.545H864L864 851ZM960 851H1055V774.545H960L960 851ZM1056 851H1151V774.545H1056V851ZM1152 851H1247V774.545H1152V851ZM1248 851H1343V774.545H1248V851ZM1344 851H1439V774.545H1344V851ZM1440 851H1535V774.545H1440V851ZM1536 851H1631V774.545H1536V851ZM1632 851H1727V774.545H1632V851ZM1727 697.091V773.545H1632V697.091H1727ZM1631 697.091V773.545H1536V697.091H1631ZM1535 697.091V773.545H1440V697.091H1535ZM1439 697.091V773.545H1344V697.091H1439ZM1343 697.091V773.545H1248V697.091H1343ZM1247 697.091V773.545H1152V697.091H1247ZM1151 697.091V773.545H1056V697.091H1151ZM1055 697.091V773.545H960V697.091H1055ZM959 697.091V773.545H864V697.091H959ZM863 697.091V773.545H768V697.091H863ZM767 697.091V773.545H672V697.091H767ZM671 697.091V773.545H576V697.091H671ZM575 697.091V773.545H480V697.091H575ZM479 697.091V773.545H384V697.091H479ZM383 697.091V773.545H288V697.091H383ZM287 697.091V773.545H192V697.091H287ZM191 697.091V773.545H96V697.091H191ZM95 697.091V773.545H3.37362e-05L3.03984e-05 697.091H95ZM3.02792e-05 696.091H95L95 619.636H2.69413e-05L3.02792e-05 696.091ZM96 696.091H191L191 619.636H96L96 696.091ZM192 696.091H287V619.636H192L192 696.091ZM288 696.091H383V619.636H288V696.091ZM384 696.091H479V619.636H384V696.091ZM480 696.091H575V619.636H480V696.091ZM576 696.091H671V619.636H576V696.091ZM672 696.091H767V619.636H672V696.091ZM768 696.091H863V619.636H768V696.091ZM864 696.091H959V619.636H864V696.091ZM960 696.091H1055V619.636H960V696.091ZM1056 696.091H1151V619.636H1056V696.091ZM1152 696.091H1247V619.636H1152V696.091ZM1248 696.091H1343V619.636H1248V696.091ZM1344 696.091H1439V619.636H1344V696.091ZM1440 696.091H1535V619.636H1440V696.091ZM1536 696.091H1631V619.636H1536V696.091ZM1632 696.091H1727V619.636H1632V696.091ZM1727 542.182V618.636H1632V542.182H1727ZM1631 542.182V618.636H1536V542.182H1631ZM1535 542.182V618.636H1440V542.182H1535ZM1439 542.182V618.636H1344V542.182H1439ZM1343 542.182V618.636H1248V542.182H1343ZM1247 542.182V618.636H1152V542.182H1247ZM1151 542.182V618.636H1056V542.182H1151ZM1055 542.182V618.636H960V542.182H1055ZM959 542.182V618.636H864V542.182H959ZM863 542.182V618.636H768V542.182H863ZM767 542.182V618.636H672V542.182H767ZM671 542.182V618.636H576V542.182H671ZM575 542.182V618.636H480V542.182H575ZM479 542.182V618.636H384V542.182H479ZM383 542.182V618.636H288V542.182H383ZM287 542.182V618.636H192V542.182H287ZM191 542.182V618.636H96V542.182H191ZM95 542.182V618.636H2.69413e-05L2.36034e-05 542.182H95ZM2.34842e-05 541.182H95L95 464.727H2.01464e-05L2.34842e-05 541.182ZM96 541.182H191V464.727H96L96 541.182ZM192 541.182H287V464.727H192V541.182ZM288 541.182H383V464.727H288V541.182ZM384 541.182H479V464.727H384V541.182ZM480 541.182H575V464.727H480V541.182ZM576 541.182H671V464.727H576V541.182ZM672 541.182H767V464.727H672V541.182ZM768 541.182H863V464.727H768V541.182ZM864 541.182H959V464.727H864V541.182ZM960 541.182H1055V464.727H960V541.182ZM1056 541.182H1151V464.727H1056V541.182ZM1152 541.182H1247V464.727H1152V541.182ZM1248 541.182H1343V464.727H1248V541.182ZM1344 541.182H1439V464.727H1344V541.182ZM1440 541.182H1535V464.727H1440V541.182ZM1536 541.182H1631V464.727H1536V541.182ZM1632 541.182H1727V464.727H1632V541.182ZM1727 387.273V463.727H1632V387.273H1727ZM1631 387.273V463.727H1536V387.273H1631ZM1535 387.273V463.727H1440V387.273H1535ZM1439 387.273V463.727H1344V387.273H1439ZM1343 387.273V463.727H1248V387.273H1343ZM1247 387.273V463.727H1152V387.273H1247ZM1151 387.273V463.727H1056V387.273H1151ZM1055 387.273V463.727H960V387.273H1055ZM959 387.273V463.727H864V387.273H959ZM863 387.273V463.727H768V387.273H863ZM767 387.273V463.727H672V387.273H767ZM671 387.273V463.727H576V387.273H671ZM575 387.273V463.727H480V387.273H575ZM479 387.273V463.727H384V387.273H479ZM383 387.273V463.727H288V387.273H383ZM287 387.273V463.727H192V387.273H287ZM191 387.273V463.727H96V387.273H191ZM95 387.273V463.727H2.01464e-05L1.68085e-05 387.273H95ZM1.66893e-05 386.273H95L95 309.818H1.33514e-05L1.66893e-05 386.273ZM96 386.273H191V309.818H96L96 386.273ZM192 386.273H287V309.818H192V386.273ZM288 386.273H383V309.818H288V386.273ZM384 386.273H479V309.818H384V386.273ZM480 386.273H575V309.818H480V386.273ZM576 386.273H671V309.818H576V386.273ZM672 386.273H767V309.818H672V386.273ZM768 386.273H863V309.818H768V386.273ZM864 386.273H959V309.818H864V386.273ZM960 386.273H1055V309.818H960V386.273ZM1056 386.273H1151V309.818H1056V386.273ZM1152 386.273H1247V309.818H1152V386.273ZM1248 386.273H1343V309.818H1248V386.273ZM1344 386.273H1439V309.818H1344V386.273ZM1440 386.273H1535V309.818H1440V386.273ZM1536 386.273H1631V309.818H1536V386.273ZM1632 386.273H1727V309.818H1632V386.273ZM1727 232.364V308.818H1632V232.364H1727ZM1631 232.364V308.818H1536V232.364H1631ZM1535 232.364V308.818H1440V232.364H1535ZM1439 232.364V308.818H1344V232.364H1439ZM1343 232.364V308.818H1248V232.364H1343ZM1247 232.364V308.818H1152V232.364H1247ZM1151 232.364V308.818H1056V232.364H1151ZM1055 232.364V308.818H960V232.364H1055ZM959 232.364V308.818H864V232.364H959ZM863 232.364V308.818H768V232.364H863ZM767 232.364V308.818H672V232.364H767ZM671 232.364V308.818H576V232.364H671ZM575 232.364V308.818H480V232.364H575ZM479 232.364V308.818H384V232.364H479ZM383 232.364V308.818H288V232.364H383ZM287 232.364V308.818H192V232.364H287ZM191 232.364V308.818H96V232.364H191ZM95 232.364V308.818H1.33514e-05L1.00136e-05 232.364H95ZM1.00136e-05 231.364H95L95 154.909H6.67572e-06L1.00136e-05 231.364ZM96 231.364H191V154.909H96L96 231.364ZM192 231.364H287V154.909H192V231.364ZM288 231.364H383V154.909H288V231.364ZM384 231.364H479V154.909H384V231.364ZM480 231.364H575V154.909H480V231.364ZM576 231.364H671V154.909H576V231.364ZM672 231.364H767V154.909H672V231.364ZM768 231.364H863V154.909H768V231.364ZM864 231.364H959V154.909H864V231.364ZM960 231.364H1055V154.909H960V231.364ZM1056 231.364H1151V154.909H1056V231.364ZM1152 231.364H1247V154.909H1152V231.364ZM1248 231.364H1343V154.909H1248V231.364ZM1344 231.364H1439V154.909H1344V231.364ZM1440 231.364H1535V154.909H1440V231.364ZM1536 231.364H1631V154.909H1536V231.364ZM1632 231.364H1727V154.909H1632V231.364ZM1727 77.4545V153.909H1632V77.4545H1727ZM1631 77.4545V153.909H1536V77.4545H1631ZM1535 77.4545V153.909H1440V77.4545H1535ZM1439 77.4545V153.909H1344V77.4545H1439ZM1343 77.4545V153.909H1248V77.4545H1343ZM1247 77.4545V153.909H1152V77.4545H1247ZM1151 77.4545V153.909H1056V77.4545H1151ZM1055 77.4545V153.909H960V77.4545H1055ZM959 77.4545V153.909H864V77.4545H959ZM863 77.4545V153.909H768V77.4545H863ZM767 77.4545V153.909H672V77.4545H767ZM671 77.4545V153.909H576V77.4545H671ZM575 77.4545V153.909H480V77.4545H575ZM479 77.4545V153.909H384V77.4545H479ZM383 77.4545V153.909H288V77.4545H383ZM287 77.4545V153.909H192V77.4545H287ZM191 77.4545V153.909H96V77.4545H191ZM95 77.4545V153.909H6.67572e-06L3.33786e-06 77.4545H95ZM3.33786e-06 76.4545H95V0H0L3.33786e-06 76.4545ZM96 76.4545H191V0H96V76.4545ZM192 76.4545H287V0H192V76.4545ZM288 76.4545H383V0H288V76.4545ZM384 76.4545H479V0H384V76.4545ZM480 76.4545H575V0H480V76.4545ZM576 76.4545H671V0H576V76.4545ZM672 76.4545H767V0H672V76.4545ZM768 76.4545H863V0H768V76.4545ZM864 76.4545H959V0H864V76.4545ZM960 76.4545H1055V0H960V76.4545ZM1056 76.4545H1151V0H1056V76.4545ZM1152 76.4545H1247V0H1152V76.4545ZM1248 76.4545H1343V0H1248V76.4545ZM1344 76.4545H1439V0H1344V76.4545ZM1440 76.4545H1535V0H1440V76.4545ZM1536 76.4545H1631V0H1536V76.4545Z" fill="url(#paint0_diamond_37_2303)"/>
<defs>
<radialGradient id="paint0_diamond_37_2303" cx="0" cy="0" r="1" gradientUnits="userSpaceOnUse" gradientTransform="translate(863.5 425.5) rotate(90) scale(426.5 864.5)">
<stop stop-color="#B3B3B3"/>
<stop offset="1" stop-color="#D6D6D6"/>
</radialGradient>
</defs>
</svg>
