<svg width="126" height="32" viewBox="0 0 126 32" fill="none" xmlns="http://www.w3.org/2000/svg">
<g clip-path="url(#clip0_20_1065)">
<path d="M16.3638 17.0234C14.2863 17.0234 12.6357 17.8418 11.4689 19.4505C10.7858 18.2087 9.41982 17.0234 7.34233 17.0234C5.20792 17.0234 3.95573 17.9547 3.0735 18.9425V18.6603C3.0735 17.8418 2.39049 17.1645 1.56519 17.1645C0.73988 17.1645 0.0853271 17.8418 0.0853271 18.6603V30.0342C0.0853271 30.8527 0.73988 31.5018 1.56519 31.5018C2.39049 31.5018 3.0735 30.8527 3.0735 30.0342V22.16C3.75652 21.0593 4.78103 19.8174 6.63086 19.8174C8.39531 19.8174 9.07832 20.6641 9.07832 22.8655V30.0342C9.07832 30.8527 9.73287 31.5018 10.5582 31.5018C11.3835 31.5018 12.0665 30.8527 12.0665 30.0342V22.16C12.7495 21.0593 13.774 19.8174 15.6238 19.8174C17.3883 19.8174 18.0713 20.6641 18.0713 22.8655V30.0342C18.0713 30.8527 18.7259 31.5018 19.5512 31.5018C20.3765 31.5018 21.0595 30.8527 21.0595 30.0342V22.3857C21.1164 19.7892 19.6365 17.0234 16.3638 17.0234ZM30.707 17.0234C29.0564 17.0234 27.5481 17.3338 25.9829 18.0112C25.4421 18.237 25.1006 18.6885 25.1006 19.2812C25.1006 20.015 25.6698 20.5795 26.3813 20.5795C26.4951 20.5795 26.6374 20.5512 26.8082 20.523C27.8611 20.1843 28.8572 19.9021 30.2801 19.9021C32.5853 19.9021 33.5529 20.7488 33.5814 22.8373H30.6217C26.5805 22.8373 24.19 24.5589 24.19 27.4095C24.19 30.2035 26.5236 31.6712 28.8287 31.6712C30.6786 31.6712 32.2723 31.1067 33.5814 30.0342V30.0624C33.5814 30.8809 34.2359 31.53 35.0612 31.53C35.8865 31.53 36.5695 30.8809 36.5695 30.0624V22.5551C36.5695 19.7892 34.7482 17.0234 30.707 17.0234ZM29.7394 28.9335C28.0604 28.9335 27.1781 28.3126 27.1781 27.099C27.1781 26.6474 27.1781 25.2927 30.9347 25.2927H33.5529V27.1272C32.7845 27.9739 31.3331 28.9335 29.7394 28.9335ZM42.4321 11.7174C43.3427 11.7174 44.0827 12.4512 44.0827 13.3544V13.4672C44.0827 14.3704 43.3427 15.1042 42.4321 15.1042H42.2613C41.3506 15.1042 40.6107 14.3704 40.6107 13.4672V13.3544C40.6107 12.4512 41.3506 11.7174 42.2613 11.7174H42.4321ZM42.3467 17.1363C43.2005 17.1363 43.855 17.8136 43.855 18.6321V30.006C43.855 30.8245 43.2005 31.4736 42.3467 31.4736C41.5214 31.4736 40.8668 30.8245 40.8668 30.006V18.6321C40.8668 17.7854 41.5214 17.1363 42.3467 17.1363ZM49.9452 11.2941C50.799 11.2941 51.4535 11.9714 51.4535 12.7899V30.006C51.4535 30.8245 50.799 31.4736 49.9452 31.4736C49.1199 31.4736 48.4653 30.8245 48.4653 30.006V12.7899C48.4653 11.9432 49.1199 11.2941 49.9452 11.2941ZM61.8125 17.0234C59.6781 17.0234 57.9137 17.8136 56.7184 19.3094C55.6939 20.6077 55.1247 22.3857 55.1247 24.3331C55.1247 28.9053 57.8283 31.6429 62.3248 31.6429C64.8007 31.6429 66.0244 31.0785 67.1343 30.4293C67.675 30.1189 67.9596 29.6673 67.9596 29.2157C67.9596 28.4819 67.362 27.8893 66.5936 27.8893C66.3659 27.8893 66.1667 27.9175 65.996 28.0304C65.1991 28.4537 64.2031 28.8206 62.524 28.8206C60.0196 28.8206 58.5398 27.6635 58.1698 25.4621H66.9067C67.7889 25.4621 68.415 24.8412 68.415 23.9945C68.4719 19.1965 65.0284 17.0234 61.8125 17.0234ZM61.8125 19.6199C63.0647 19.6199 65.1707 20.3255 65.4553 22.922H58.1698C58.4544 20.6359 60.1619 19.6199 61.8125 19.6199ZM78.8594 17.0234C79.6847 17.0234 80.3108 17.6443 80.3108 18.4627C80.3108 19.2812 79.6847 19.8739 78.8024 19.8739H78.6602C77.1234 19.8739 75.7574 20.6359 74.7898 22.0188V30.006C74.7898 30.8245 74.1067 31.4736 73.2814 31.4736C72.4561 31.4736 71.8016 30.8245 71.8016 30.006V18.6321C71.8016 17.8136 72.4561 17.1363 73.2814 17.1363C74.1067 17.1363 74.7898 17.8136 74.7898 18.6321V18.999C75.985 17.7007 77.2941 17.0234 78.7171 17.0234H78.8594Z" fill="black"/>
<path d="M121.076 0.228516H90.3754C88.0094 0.228516 86.0474 2.17137 86.0474 4.51423V18.7999V21.5999V31.7428L92.0201 25.8857H121.104C123.47 25.8857 125.433 23.9428 125.433 21.5999V4.51423C125.404 2.1428 123.47 0.228516 121.076 0.228516Z" fill="#09C269"/>
<path d="M115.42 10.1714C118.71 10.1714 120.21 12.7714 120.21 15.1714C120.21 15.8285 119.719 16.2857 119.056 16.2857H112.997C113.285 17.7428 114.324 18.5143 115.968 18.5143C117.151 18.5143 117.815 18.2571 118.392 17.9714C118.536 17.8857 118.681 17.8571 118.854 17.8571C119.431 17.8571 119.893 18.3143 119.893 18.8857C119.893 19.2571 119.662 19.6 119.258 19.8285C118.45 20.2857 117.584 20.6857 115.795 20.6857C112.564 20.6857 110.602 18.7142 110.602 15.4285C110.602 11.5714 113.199 10.1714 115.42 10.1714ZM105.783 8.48568C106.158 8.48568 106.418 8.77139 106.418 9.14282V10.3428H108.265C108.842 10.3428 109.303 10.8 109.303 11.3714C109.303 11.9428 108.842 12.4 108.265 12.4H106.447V17.7714C106.447 18.5428 106.851 18.6 107.399 18.6C107.716 18.6 107.889 18.5428 108.063 18.5143C108.207 18.4857 108.351 18.4285 108.524 18.4285C108.986 18.4285 109.505 18.8 109.505 19.4C109.476 19.7714 109.274 20.1142 108.899 20.2857C108.351 20.5428 107.803 20.6571 107.197 20.6571C105.206 20.6571 104.139 19.7143 104.139 17.9143V12.4H103.1C102.725 12.4 102.465 12.1143 102.465 11.7714C102.465 11.5714 102.552 11.3714 102.725 11.2285L105.264 8.74282C105.322 8.68568 105.523 8.48568 105.783 8.48568ZM94.0975 6.14282C94.7322 6.14282 95.2516 6.65711 95.2516 7.28568V19.4285C95.2516 20.0571 94.7322 20.5428 94.0975 20.5428C93.4627 20.5428 92.9722 20.0285 92.9722 19.4285V7.28568C92.9722 6.65711 93.4627 6.14282 94.0975 6.14282ZM99.4642 10.2571C100.099 10.2571 100.618 10.7714 100.618 11.4V19.4285C100.618 20.0571 100.099 20.5428 99.4642 20.5428C98.8294 20.5428 98.3389 20.0285 98.3389 19.4285V11.4C98.3389 10.7714 98.8294 10.2571 99.4642 10.2571ZM115.449 12.2C114.353 12.2 113.199 12.8571 112.997 14.3714H117.931C117.7 12.8571 116.546 12.2 115.449 12.2ZM99.5219 6.42854C100.214 6.42854 100.763 6.97139 100.763 7.65711V7.74282C100.763 8.42854 100.214 8.97139 99.5219 8.97139H99.4065C98.714 8.97139 98.1658 8.42854 98.1658 7.74282V7.65711C98.1658 6.97139 98.714 6.42854 99.4065 6.42854H99.5219Z" fill="white"/>
</g>
<defs>
<clipPath id="clip0_20_1065">
<rect width="125.49" height="32" fill="white"/>
</clipPath>
</defs>
</svg>
